<svg id="wave4" xmlns="http://www.w3.org/2000/svg" viewBox="0 0 1399.7 148.8"><defs><style>.cls-1{fill:#fc2c39;}</style></defs>
        <path class="cls-1" d="M1424.69,187.56c-31.1,4.3-86,11.9-144-16-54.3-27.9-111.6-92.7-167.2-88.4-49.22,3.81-63.94,28.76-111.33,53.16-31.93,16.45-49.55,21.17-59.77,23.14-84.57,16.3-121.4-55.27-183.5-34.35-36,12.11-42.65,42.53-90.89,49a137.13,137.13,0,0,1-46-2c-36-7.75-56.49-27.53-73.5-39.83C490.21,90.06,402,84.66,352.84,103c-15.74,5.86-61.94,27-87,40.48a554.39,554.39,0,0,1-56.88,26.61c-6.09,2.45-12.48,4.83-19.6,7.28a500.64,500.64,0,0,1-94.72,22.31c-14.3,2-28.4,3.5-42.5,4.2v27.9h1399.7v-48.2Z" transform="translate(-52.09 -82.96)">
        </path>
      </svg>