<svg id="wave1" version="1.1" xmlns="http://www.w3.org/2000/svg" xmlns:xlink="http://www.w3.org/1999/xlink" x="0px" y="0px" viewBox="0 0 1400 244.1"  style="enable-background:new 0 0 1400 244.1;" xml:space="preserve">
        <path fill="#7fa234" fill-opacity="1" class="st0" d="M1400.26,83.74c-14.71-9.38-29.41-17.87-44.21-24.14-7.69-3.26-94-36.61-171.1,0-57.87,27.47-42.65,62.17-97.1,91.4-56,30.09-87.4,1.51-187.28,11.87-96.32,10-89.33,38.95-177.72,48.13-99.45,10.33-183.48-18.63-231-35-77.26-26.62-76.53-42.41-154.6-64.3C293,99.3,238.93,82.15,170.05,91.6c-58.3,8-114.7,32.1-142.7,44.2L.09,147.38V244.1H1400.26Z">
        </path>
    </svg>